<?xml version="1.0" encoding="UTF-8"?>
<!-- Uploaded to: SVG Repo, www.svgrepo.com, Generator: SVG Repo Mixer Tools -->
<svg width="800px" height="800px" viewBox="-25 0 114 114" version="1.1" xmlns="http://www.w3.org/2000/svg" xmlns:xlink="http://www.w3.org/1999/xlink">
    
    <title>002-Designer</title>
    <desc>Created with Sketch.</desc>
    <defs>

</defs>
    <g id="Page-1" stroke="none" stroke-width="1" fill="none" fill-rule="evenodd">
        <g id="Artboard" transform="translate(-295.000000, -531.000000)">
            <g id="002-Designer" transform="translate(295.000000, 531.000000)">
                <polygon id="Fill-314" fill="#F3B679" points="17.5827 40.1794 38.0727 42.8924 37.4607 48.2244 16.7197 44.9554">

</polygon>
                <path d="M19.1207,37.483 C18.0947,36.995 11.2467,36.014 10.8327,36.816 C10.4187,37.618 10.7917,38.53 12.4147,39.17 C13.2407,39.497 15.5377,40.678 15.5377,40.678 L20.8907,40.617 C20.8907,40.617 20.1467,37.971 19.1207,37.483" id="Fill-316" fill="#F3B679">

</path>
                <path d="M11.9215,43.7451 C11.9215,43.7451 11.8965,45.6261 12.1985,46.1111 C12.3435,46.3441 13.8375,46.5261 16.0795,46.6081 C16.0795,46.6081 16.7125,47.8071 17.6735,47.9161 C18.9485,48.0611 20.4315,46.4771 20.9595,45.6061 C21.2545,45.1191 18.3545,43.4061 18.3545,43.4061 L15.5795,44.5231 L11.9215,43.7451 Z" id="Fill-318" fill="#F3B679">

</path>
                <path d="M0.4052,38.2302 C0.1442,38.4592 -0.0128,39.0732 0.1542,39.5202 C0.3222,39.9672 4.2282,42.1202 4.2282,42.1202 L4.8762,38.1162 C4.8762,38.1162 0.6662,38.0012 0.4052,38.2302" id="Fill-320" fill="#D7DCDA">

</path>
                <path d="M4.5926,38.1963 C3.7646,38.7913 3.0316,40.9063 3.5976,41.7213 C4.4036,42.8783 16.0896,44.9353 17.8516,45.0403 C18.5816,45.0843 18.8016,45.1743 19.2416,45.0513 C19.9876,44.8423 20.5716,43.9783 20.7016,43.1503 C20.9076,41.8343 20.5026,40.6603 19.3356,40.2623 C17.7906,39.7353 5.4206,37.6013 4.5926,38.1963" id="Fill-322" fill="#D7DCDA">

</path>
                <path d="M22.0201,17.5923 C21.1041,18.0503 20.5891,26.1793 21.0791,27.0953 C21.4001,27.6933 23.5351,27.5013 23.5351,27.5013 L25.2541,17.7923 C25.2541,17.7923 22.9361,17.1343 22.0201,17.5923" id="Fill-324" fill="#8CCFD9">

</path>
                <path d="M22.7498,31.5938 C24.9628,37.6888 42.9068,43.5448 45.5488,42.1508 C47.3608,41.1948 51.3148,38.8608 53.2768,34.9378 C55.2388,31.0148 53.6908,21.9998 53.6908,21.9998 L42.5718,12.9558 L25.5328,14.1198 C25.5328,14.1198 21.3668,27.7848 22.7498,31.5938" id="Fill-326" fill="#F3B679">

</path>
                <path d="M46.0115,104.7847 C46.0115,104.7847 33.5145,103.8737 31.6395,106.3207 C29.7645,108.7677 31.6395,112.0967 40.6395,113.4407 C47.8775,114.5217 48.1395,110.6457 48.0145,108.9007 C47.8895,107.1567 46.0115,104.7847 46.0115,104.7847" id="Fill-328" fill="#B55D75">

</path>
                <path d="M46.0115,104.7847 C46.0115,104.7847 33.5145,103.8737 31.6395,106.3207 C29.7645,108.7677 33.2955,110.8467 40.5455,111.8467 C47.7955,112.8467 48.1395,110.6457 48.0145,108.9007 C47.8895,107.1567 46.0115,104.7847 46.0115,104.7847" id="Fill-330" fill="#D47087">

</path>
                <path d="M52.0302,105.0823 C52.0302,105.0823 59.2112,102.0433 61.9972,103.3623 C64.7832,104.6813 64.2582,108.8133 59.6082,111.2583 C53.1302,114.6653 50.0142,112.2583 50.2952,109.5713 C50.4772,107.8313 52.0302,105.0823 52.0302,105.0823" id="Fill-332" fill="#B55D75">

</path>
                <path d="M52.0302,105.0823 C52.0302,105.0823 59.2112,102.0433 61.9972,103.3623 C64.7832,104.6813 63.9972,107.3363 59.3472,109.7823 C52.8702,113.1883 51.4502,111.2453 50.7642,109.6363 C50.0782,108.0273 52.0302,105.0823 52.0302,105.0823" id="Fill-334" fill="#D47087">

</path>
                <path d="M56.7531,103.3242 C56.2801,103.2062 54.8311,103.3062 54.6091,103.7292 C54.3861,104.1522 57.7441,106.5562 58.1041,106.8672 C58.4651,107.1792 59.8061,106.7672 60.2091,106.2422 C60.6121,105.7172 57.2261,103.4422 56.7531,103.3242" id="Fill-336" fill="#B55D75">

</path>
                <path d="M46.2414,81.8808 C46.2414,81.8808 51.9584,106.2718 52.7274,107.0408 C53.4964,107.8098 55.2664,107.7138 56.0094,107.0408 C56.7534,106.3678 61.0554,77.1808 61.0554,77.1808 L46.2414,81.8808 Z" id="Fill-338" fill="#5C4555">

</path>
                <path d="M51.7595,80.13 L46.2415,81.881 C46.2415,81.881 47.9735,89.27 49.6595,96.044 C50.6155,89.732 51.5135,82.222 51.7595,80.13" id="Fill-340" fill="#4C3647">

</path>
                <path d="M50.0143,81.196 L29.3303,79.071 C29.3303,79.071 40.4243,105.426 42.0663,106.964 C43.7083,108.501 44.4683,108.141 45.8133,107.084 C47.1593,106.027 50.0143,81.196 50.0143,81.196" id="Fill-342" fill="#5C4555">

</path>
                <path d="M29.7747,31.0557 C29.4167,29.5157 28.2077,28.4807 27.0737,28.7447 C25.9387,29.0077 25.3087,30.4697 25.6667,32.0097 C26.0237,33.5497 27.2337,34.5837 28.3677,34.3207 C29.5027,34.0577 30.1327,32.5957 29.7747,31.0557" id="Fill-344" fill="#EB8E71">

</path>
                <path d="M39.514,27.6249 L39.36,33.8329 C39.36,33.8329 41.257,32.4119 41.127,30.8409 C40.997,29.2709 39.514,27.6249 39.514,27.6249" id="Fill-346" fill="#D58F66">

</path>
                <path d="M51.7122,41.8327 L35.4622,45.0887 L33.1402,50.8507 C33.1402,50.8507 24.1562,71.3267 27.1162,79.8947 C28.1112,82.7767 38.9352,85.7537 47.8722,85.0837 C55.3252,84.5237 61.1542,80.6267 61.2302,79.5097 C62.7952,56.3177 51.7122,41.8327 51.7122,41.8327" id="Fill-348" fill="#FCFDFD">

</path>
                <path d="M28.0265,63.7469 C28.3145,65.0919 35.5415,67.5299 36.6465,66.9529 C37.7515,66.3769 41.5375,49.1359 41.5375,49.1359 C41.5375,49.1359 27.7385,62.4019 28.0265,63.7469" id="Fill-350" fill="#D7DCDA">

</path>
                <path d="M28.4195,59.9565 C27.7475,59.9565 20.6115,78.0465 20.9725,78.6955 C21.3325,79.3435 25.1525,80.5685 25.9455,80.5685 C26.7385,80.5685 33.6565,63.1245 33.4405,61.9745 C33.2245,60.8245 29.0915,59.9565 28.4195,59.9565" id="Fill-352" fill="#F3B679">

</path>
                <path d="M28.4195,59.9565 C28.2175,59.9565 27.4315,61.5925 26.4425,63.8915 C28.0725,64.6885 30.3155,65.5465 32.2015,66.1265 C32.9875,63.9435 33.5025,62.3015 33.4405,61.9745 C33.2245,60.8245 29.0915,59.9565 28.4195,59.9565" id="Fill-354" fill="#D58F66">

</path>
                <path d="M35.4618,45.0883 C35.4618,45.0883 23.9278,58.9713 24.2158,60.3173 C24.5038,61.6623 34.6248,65.3353 35.7298,64.7583 C36.8348,64.1813 41.6208,48.9413 41.6208,48.9413 L35.4618,45.0883 Z" id="Fill-356" fill="#FCFDFD">

</path>
                <path d="M52.9379,43.4311 C52.1949,42.3741 51.7119,41.8331 51.7119,41.8331 L35.4619,45.0881 L34.2199,46.5971 C41.1189,46.9881 47.2439,46.1751 52.9379,43.4311" id="Fill-358" fill="#D7DCDA">

</path>
                <path d="M50.7738,38.3693 C46.4008,37.9653 36.5168,40.6223 36.5168,40.6223 L33.9308,45.3383 C40.9048,45.1133 48.1388,44.2613 51.7118,41.8323 C51.7508,39.7773 50.7738,38.3693 50.7738,38.3693" id="Fill-360" fill="#FCFDFD">

</path>
                <path d="M10.06,73.7778 C8.722,74.1428 7.566,76.6368 8.053,77.7318 C8.539,78.8268 25.753,86.5248 26.97,86.5248 C28.186,86.5248 29.91,83.9478 29.139,82.7308 C28.369,81.5148 11.398,73.4128 10.06,73.7778" id="Fill-362" fill="#D7DCDA">

</path>
                <path d="M15.3133,81.6487 C18.7453,83.2557 22.5823,84.9337 24.9033,85.8417 C25.6473,84.8877 26.5013,82.8417 26.9993,81.3057 C24.6343,79.9757 20.7193,78.0447 17.2363,76.4687 C16.4673,77.9027 15.5783,80.3967 15.3133,81.6487" id="Fill-364" fill="#B5B7B6">

</path>
                <path d="M19.0059,76.4248 C18.1049,76.9298 16.2339,82.1328 16.2339,83.2138 C16.2339,84.2948 24.1589,87.7188 25.3119,87.3578 C26.4649,86.9978 28.4199,81.5778 28.4199,80.5688 C28.4199,79.5598 19.9069,75.9208 19.0059,76.4248" id="Fill-366" fill="#F3B679">

</path>
                <path d="M38.1745,71.8175 C38.1745,71.8175 37.0745,66.7115 39.9245,66.8375 C42.7735,66.9635 41.4195,71.2715 41.4195,71.2715 C41.4195,71.2715 44.0195,67.9305 45.0155,70.5985 C45.6365,72.2615 42.1065,74.6355 42.1065,74.6355 C42.1065,74.6355 45.3175,76.8045 44.1365,78.4125 C42.9555,80.0205 40.6925,77.3955 40.6925,77.3955 C40.6925,77.3955 41.8645,81.2075 39.3595,81.5105 C36.3695,81.8725 38.0005,77.3345 38.0005,77.3345 C38.0005,77.3345 34.8875,80.2915 33.9825,78.4125 C33.0775,76.5325 36.7915,74.6835 36.7915,74.6835 C36.7915,74.6835 32.0755,72.5525 34.1655,70.6025 C35.9265,68.9605 38.1745,71.8175 38.1745,71.8175" id="Fill-368" fill="#EB8E71">

</path>
                <path d="M41.329,74.66 C41.706,73.293 41.237,71.972 40.283,71.709 C39.329,71.446 38.249,72.341 37.873,73.707 C37.496,75.074 37.964,76.395 38.919,76.658 C39.873,76.921 40.952,76.027 41.329,74.66" id="Fill-370" fill="#E8B76B">

</path>
                <path d="M52.5944,70.3043 C52.5944,70.3043 51.6164,65.7643 54.1504,65.8763 C56.6834,65.9883 55.4794,69.8193 55.4794,69.8193 C55.4794,69.8193 57.7914,66.8483 58.6774,69.2203 C59.2294,70.6993 56.0904,72.8103 56.0904,72.8103 C56.0904,72.8103 58.9454,74.7383 57.8954,76.1683 C56.8454,77.5983 54.8334,75.2633 54.8334,75.2633 C54.8334,75.2633 55.8754,78.6543 53.6484,78.9233 C50.9894,79.2453 52.4394,75.2103 52.4394,75.2103 C52.4394,75.2103 49.6714,77.8393 48.8664,76.1683 C48.0624,74.4973 51.3654,72.8523 51.3654,72.8523 C51.3654,72.8523 47.1714,70.9573 49.0294,69.2243 C50.5954,67.7643 52.5944,70.3043 52.5944,70.3043" id="Fill-372" fill="#EB8E71">

</path>
                <path d="M55.3993,72.8318 C55.7343,71.6168 55.3183,70.4418 54.4693,70.2078 C53.6203,69.9738 52.6613,70.7698 52.3263,71.9848 C51.9913,73.1998 52.4073,74.3738 53.2563,74.6078 C54.1043,74.8418 55.0643,74.0468 55.3993,72.8318" id="Fill-374" fill="#E8B76B">

</path>
                <path d="M47.0848,52.9871 C47.0848,52.9871 45.9808,47.8621 48.8408,47.9881 C51.7018,48.1141 50.3428,52.4391 50.3428,52.4391 C50.3428,52.4391 52.9518,49.0851 53.9518,51.7631 C54.5758,53.4331 51.0318,55.8161 51.0318,55.8161 C51.0318,55.8161 54.2548,57.9931 53.0698,59.6071 C51.8838,61.2221 49.6118,58.5861 49.6118,58.5861 C49.6118,58.5861 50.7888,62.4141 48.2748,62.7181 C45.2728,63.0811 46.9098,58.5251 46.9098,58.5251 C46.9098,58.5251 43.7848,61.4941 42.8758,59.6071 C41.9678,57.7211 45.6968,55.8641 45.6968,55.8641 C45.6968,55.8641 40.9618,53.7251 43.0608,51.7681 C44.8278,50.1191 47.0848,52.9871 47.0848,52.9871" id="Fill-376" fill="#EB8E71">

</path>
                <path d="M50.2516,55.8405 C50.6296,54.4685 50.1596,53.1425 49.2016,52.8785 C48.2436,52.6145 47.1606,53.5125 46.7816,54.8835 C46.4036,56.2555 46.8736,57.5815 47.8316,57.8465 C48.7896,58.1105 49.8736,57.2125 50.2516,55.8405" id="Fill-378" fill="#E8B76B">

</path>
                <path d="M28.5076,59.6851 C28.5076,59.6851 32.8906,58.5071 32.2666,56.8371 C31.2666,54.1591 28.4336,56.0041 28.4336,56.0041 C28.4336,56.0041 29.4686,54.4901 28.9746,53.1701 C26.5706,56.3611 24.0686,59.6321 24.2156,60.3171 C24.3786,61.0771 27.5416,62.5281 30.4716,63.5521 C31.5996,60.9201 28.5076,59.6851 28.5076,59.6851" id="Fill-380" fill="#EB8E71">

</path>
                <path d="M27.7269,59.7099 C28.1049,58.3379 27.6349,57.0119 26.6769,56.7479 C26.3559,56.6589 26.5219,56.6909 26.2039,56.8369 C25.0129,58.6119 24.1289,59.9129 24.2159,60.3169 C24.2939,60.6819 25.0549,61.2959 26.2039,61.7739 C26.8479,61.4919 27.4709,60.6379 27.7269,59.7099" id="Fill-382" fill="#E8B76B">

</path>
                <path d="M25.1145,15.5594 L24.6025,17.4304 C24.6025,17.4304 29.4795,20.9984 40.2465,17.4304 L41.1335,14.4464 L25.1145,15.5594 Z" id="Fill-384" fill="#D58F66">

</path>
                <path d="M57.6277,11.0662 C57.6277,11.0662 59.8357,6.0402 58.7667,5.2002 C57.6987,4.3612 54.7267,8.7762 54.7267,8.7762 C54.7267,8.7762 39.3847,-3.7288 26.9437,2.4412 C23.6047,4.0972 27.4627,10.0682 27.4627,10.0682 C27.4627,10.0682 22.7787,10.0592 22.8977,11.7532 C23.5087,20.4542 38.3927,16.1802 38.3927,16.1802 C38.3927,16.1802 32.6107,24.9772 34.4997,28.1642 C35.3947,29.6732 41.3697,27.6102 41.3697,27.6102 C41.3697,27.6102 41.8277,38.7162 45.5067,38.9572 C48.2867,39.1392 50.0707,34.6522 50.0707,34.6522 C50.0707,34.6522 49.2627,38.7152 50.6837,38.1582 C56.7117,35.7972 60.9857,23.8892 59.3837,14.8062 C59.3837,14.8062 64.0397,11.9822 63.3527,10.6842 C62.6657,9.3872 57.6277,11.0662 57.6277,11.0662" id="Fill-386" fill="#9A5F5F">

</path>
                <path d="M41.2551,26.9522 C40.6541,26.1792 20.4691,19.2802 20.4691,19.2802 L20.2931,20.4172 C20.2931,20.4172 39.6591,27.4622 40.2281,27.9662 C40.7971,28.4692 41.8561,34.7952 42.2281,35.0242 C42.6001,35.2532 43.3451,34.9952 43.5731,34.6232 C43.8021,34.2512 41.8561,27.7252 41.2551,26.9522" id="Fill-388" fill="#4E433A">

</path>
                <path d="M38.2496,24.6909 C37.5336,24.4049 35.9886,25.9439 35.9026,26.6949 C35.8166,27.4449 37.2766,31.4179 37.2766,31.4179 C37.2766,31.4179 35.3516,32.8489 35.3586,34.1369 C35.3636,35.0079 37.0536,35.7139 37.7686,35.7139 C38.4846,35.7139 39.9586,33.0459 40.1596,31.6429 C40.3596,30.2399 38.9656,24.9769 38.2496,24.6909" id="Fill-390" fill="#EFA26E">

</path>
                <path d="M1.5963,38.1014 C0.9743,38.1194 0.4883,38.1574 0.4053,38.2304 C0.1443,38.4594 -0.0127,39.0734 0.1543,39.5204 C0.2103,39.6704 0.6933,40.0144 1.3043,40.4044 C0.9153,39.4944 1.1273,38.8074 1.5963,38.1014" id="Fill-392" fill="#463141">

</path>
                <path d="M19.5036,40.2335 C19.2526,40.1475 18.5436,40.0485 17.8166,39.8965 C17.0806,40.3115 16.5876,41.2315 16.4386,42.2425 C16.2846,43.2835 16.5256,44.3625 17.1136,44.9615 C17.4346,45.0035 17.6866,45.0305 17.8506,45.0405 C18.5816,45.0835 18.8016,45.1745 19.2416,45.0515 C19.9876,44.8425 20.5716,43.9785 20.7016,43.1505 C20.9076,41.8335 20.6716,40.6315 19.5036,40.2335" id="Fill-394" fill="#5C4555">

</path>
                <path d="M20.8529,42.9031 C21.0499,41.5681 20.4459,40.3731 19.5039,40.2331 C18.5609,40.0941 17.6369,41.0641 17.4399,42.3991 C17.2429,43.7341 17.8469,44.9291 18.7889,45.0681 C19.7319,45.2081 20.6559,44.2381 20.8529,42.9031" id="Fill-396" fill="#463141">

</path>
                <path d="M4.5926,38.1963 C3.7646,38.7913 3.0316,40.9063 3.5976,41.7213 C3.7046,41.8733 4.0046,42.0423 4.4416,42.2203 C4.4306,41.0543 4.7146,39.4993 5.9386,38.1113 C5.2256,38.0733 4.7356,38.0943 4.5926,38.1963" id="Fill-398" fill="#5C4555">

</path>
                <path d="M39.8683,104.3493 C39.5073,104.0223 37.8063,104.1583 37.4103,104.4253 C37.0133,104.6933 36.8433,108.1333 37.0133,108.5783 C37.1843,109.0223 38.7493,108.8493 39.3523,108.5783 C39.9553,108.3063 40.2293,104.6763 39.8683,104.3493" id="Fill-400" fill="#B55D75">

</path>
            </g>
        </g>
    </g>
</svg>